G04 #@! TF.FileFunction,Paste,Bot*
%FSLAX46Y46*%
G04 Gerber Fmt 4.6, Leading zero omitted, Abs format (unit mm)*
G04 Created by KiCad (PCBNEW (2014-11-27 BZR 5304)-product) date 2015 February 14, Saturday 16:28:48*
%MOMM*%
G01*
G04 APERTURE LIST*
%ADD10C,0.100000*%
%ADD11R,1.399540X0.350520*%
%ADD12R,0.800000X0.750000*%
%ADD13R,0.900000X0.500000*%
%ADD14R,1.000000X1.600000*%
%ADD15R,1.600000X1.000000*%
%ADD16R,0.500000X0.900000*%
G04 APERTURE END LIST*
D10*
D11*
X62460000Y-140992500D03*
X62460000Y-140357500D03*
X62460000Y-139722500D03*
X62460000Y-139087500D03*
X62460000Y-138452500D03*
X62460000Y-137817500D03*
X62460000Y-137182500D03*
X62460000Y-136547500D03*
X62460000Y-135912500D03*
X62460000Y-135277500D03*
X62460000Y-134642500D03*
X62460000Y-134007500D03*
X67540000Y-134007500D03*
X67540000Y-134642500D03*
X67540000Y-135277500D03*
X67540000Y-135912500D03*
X67540000Y-136547500D03*
X67540000Y-137182500D03*
X67540000Y-137817500D03*
X67540000Y-138452500D03*
X67540000Y-139087500D03*
X67540000Y-139722500D03*
X67540000Y-140357500D03*
X67540000Y-140992500D03*
X82460000Y-140992500D03*
X82460000Y-140357500D03*
X82460000Y-139722500D03*
X82460000Y-139087500D03*
X82460000Y-138452500D03*
X82460000Y-137817500D03*
X82460000Y-137182500D03*
X82460000Y-136547500D03*
X82460000Y-135912500D03*
X82460000Y-135277500D03*
X82460000Y-134642500D03*
X82460000Y-134007500D03*
X87540000Y-134007500D03*
X87540000Y-134642500D03*
X87540000Y-135277500D03*
X87540000Y-135912500D03*
X87540000Y-136547500D03*
X87540000Y-137182500D03*
X87540000Y-137817500D03*
X87540000Y-138452500D03*
X87540000Y-139087500D03*
X87540000Y-139722500D03*
X87540000Y-140357500D03*
X87540000Y-140992500D03*
X102465000Y-140992500D03*
X102465000Y-140357500D03*
X102465000Y-139722500D03*
X102465000Y-139087500D03*
X102465000Y-138452500D03*
X102465000Y-137817500D03*
X102465000Y-137182500D03*
X102465000Y-136547500D03*
X102465000Y-135912500D03*
X102465000Y-135277500D03*
X102465000Y-134642500D03*
X102465000Y-134007500D03*
X107545000Y-134007500D03*
X107545000Y-134642500D03*
X107545000Y-135277500D03*
X107545000Y-135912500D03*
X107545000Y-136547500D03*
X107545000Y-137182500D03*
X107545000Y-137817500D03*
X107545000Y-138452500D03*
X107545000Y-139087500D03*
X107545000Y-139722500D03*
X107545000Y-140357500D03*
X107545000Y-140992500D03*
X132460000Y-140992500D03*
X132460000Y-140357500D03*
X132460000Y-139722500D03*
X132460000Y-139087500D03*
X132460000Y-138452500D03*
X132460000Y-137817500D03*
X132460000Y-137182500D03*
X132460000Y-136547500D03*
X132460000Y-135912500D03*
X132460000Y-135277500D03*
X132460000Y-134642500D03*
X132460000Y-134007500D03*
X137540000Y-134007500D03*
X137540000Y-134642500D03*
X137540000Y-135277500D03*
X137540000Y-135912500D03*
X137540000Y-136547500D03*
X137540000Y-137182500D03*
X137540000Y-137817500D03*
X137540000Y-138452500D03*
X137540000Y-139087500D03*
X137540000Y-139722500D03*
X137540000Y-140357500D03*
X137540000Y-140992500D03*
X152460000Y-140992500D03*
X152460000Y-140357500D03*
X152460000Y-139722500D03*
X152460000Y-139087500D03*
X152460000Y-138452500D03*
X152460000Y-137817500D03*
X152460000Y-137182500D03*
X152460000Y-136547500D03*
X152460000Y-135912500D03*
X152460000Y-135277500D03*
X152460000Y-134642500D03*
X152460000Y-134007500D03*
X157540000Y-134007500D03*
X157540000Y-134642500D03*
X157540000Y-135277500D03*
X157540000Y-135912500D03*
X157540000Y-136547500D03*
X157540000Y-137182500D03*
X157540000Y-137817500D03*
X157540000Y-138452500D03*
X157540000Y-139087500D03*
X157540000Y-139722500D03*
X157540000Y-140357500D03*
X157540000Y-140992500D03*
X182460000Y-140992500D03*
X182460000Y-140357500D03*
X182460000Y-139722500D03*
X182460000Y-139087500D03*
X182460000Y-138452500D03*
X182460000Y-137817500D03*
X182460000Y-137182500D03*
X182460000Y-136547500D03*
X182460000Y-135912500D03*
X182460000Y-135277500D03*
X182460000Y-134642500D03*
X182460000Y-134007500D03*
X187540000Y-134007500D03*
X187540000Y-134642500D03*
X187540000Y-135277500D03*
X187540000Y-135912500D03*
X187540000Y-136547500D03*
X187540000Y-137182500D03*
X187540000Y-137817500D03*
X187540000Y-138452500D03*
X187540000Y-139087500D03*
X187540000Y-139722500D03*
X187540000Y-140357500D03*
X187540000Y-140992500D03*
X202460000Y-140992500D03*
X202460000Y-140357500D03*
X202460000Y-139722500D03*
X202460000Y-139087500D03*
X202460000Y-138452500D03*
X202460000Y-137817500D03*
X202460000Y-137182500D03*
X202460000Y-136547500D03*
X202460000Y-135912500D03*
X202460000Y-135277500D03*
X202460000Y-134642500D03*
X202460000Y-134007500D03*
X207540000Y-134007500D03*
X207540000Y-134642500D03*
X207540000Y-135277500D03*
X207540000Y-135912500D03*
X207540000Y-136547500D03*
X207540000Y-137182500D03*
X207540000Y-137817500D03*
X207540000Y-138452500D03*
X207540000Y-139087500D03*
X207540000Y-139722500D03*
X207540000Y-140357500D03*
X207540000Y-140992500D03*
X222460000Y-140992500D03*
X222460000Y-140357500D03*
X222460000Y-139722500D03*
X222460000Y-139087500D03*
X222460000Y-138452500D03*
X222460000Y-137817500D03*
X222460000Y-137182500D03*
X222460000Y-136547500D03*
X222460000Y-135912500D03*
X222460000Y-135277500D03*
X222460000Y-134642500D03*
X222460000Y-134007500D03*
X227540000Y-134007500D03*
X227540000Y-134642500D03*
X227540000Y-135277500D03*
X227540000Y-135912500D03*
X227540000Y-136547500D03*
X227540000Y-137182500D03*
X227540000Y-137817500D03*
X227540000Y-138452500D03*
X227540000Y-139087500D03*
X227540000Y-139722500D03*
X227540000Y-140357500D03*
X227540000Y-140992500D03*
X242460000Y-140992500D03*
X242460000Y-140357500D03*
X242460000Y-139722500D03*
X242460000Y-139087500D03*
X242460000Y-138452500D03*
X242460000Y-137817500D03*
X242460000Y-137182500D03*
X242460000Y-136547500D03*
X242460000Y-135912500D03*
X242460000Y-135277500D03*
X242460000Y-134642500D03*
X242460000Y-134007500D03*
X247540000Y-134007500D03*
X247540000Y-134642500D03*
X247540000Y-135277500D03*
X247540000Y-135912500D03*
X247540000Y-136547500D03*
X247540000Y-137182500D03*
X247540000Y-137817500D03*
X247540000Y-138452500D03*
X247540000Y-139087500D03*
X247540000Y-139722500D03*
X247540000Y-140357500D03*
X247540000Y-140992500D03*
X282460000Y-140992500D03*
X282460000Y-140357500D03*
X282460000Y-139722500D03*
X282460000Y-139087500D03*
X282460000Y-138452500D03*
X282460000Y-137817500D03*
X282460000Y-137182500D03*
X282460000Y-136547500D03*
X282460000Y-135912500D03*
X282460000Y-135277500D03*
X282460000Y-134642500D03*
X282460000Y-134007500D03*
X287540000Y-134007500D03*
X287540000Y-134642500D03*
X287540000Y-135277500D03*
X287540000Y-135912500D03*
X287540000Y-136547500D03*
X287540000Y-137182500D03*
X287540000Y-137817500D03*
X287540000Y-138452500D03*
X287540000Y-139087500D03*
X287540000Y-139722500D03*
X287540000Y-140357500D03*
X287540000Y-140992500D03*
X302460000Y-140992500D03*
X302460000Y-140357500D03*
X302460000Y-139722500D03*
X302460000Y-139087500D03*
X302460000Y-138452500D03*
X302460000Y-137817500D03*
X302460000Y-137182500D03*
X302460000Y-136547500D03*
X302460000Y-135912500D03*
X302460000Y-135277500D03*
X302460000Y-134642500D03*
X302460000Y-134007500D03*
X307540000Y-134007500D03*
X307540000Y-134642500D03*
X307540000Y-135277500D03*
X307540000Y-135912500D03*
X307540000Y-136547500D03*
X307540000Y-137182500D03*
X307540000Y-137817500D03*
X307540000Y-138452500D03*
X307540000Y-139087500D03*
X307540000Y-139722500D03*
X307540000Y-140357500D03*
X307540000Y-140992500D03*
X332460000Y-140992500D03*
X332460000Y-140357500D03*
X332460000Y-139722500D03*
X332460000Y-139087500D03*
X332460000Y-138452500D03*
X332460000Y-137817500D03*
X332460000Y-137182500D03*
X332460000Y-136547500D03*
X332460000Y-135912500D03*
X332460000Y-135277500D03*
X332460000Y-134642500D03*
X332460000Y-134007500D03*
X337540000Y-134007500D03*
X337540000Y-134642500D03*
X337540000Y-135277500D03*
X337540000Y-135912500D03*
X337540000Y-136547500D03*
X337540000Y-137182500D03*
X337540000Y-137817500D03*
X337540000Y-138452500D03*
X337540000Y-139087500D03*
X337540000Y-139722500D03*
X337540000Y-140357500D03*
X337540000Y-140992500D03*
X352460000Y-140992500D03*
X352460000Y-140357500D03*
X352460000Y-139722500D03*
X352460000Y-139087500D03*
X352460000Y-138452500D03*
X352460000Y-137817500D03*
X352460000Y-137182500D03*
X352460000Y-136547500D03*
X352460000Y-135912500D03*
X352460000Y-135277500D03*
X352460000Y-134642500D03*
X352460000Y-134007500D03*
X357540000Y-134007500D03*
X357540000Y-134642500D03*
X357540000Y-135277500D03*
X357540000Y-135912500D03*
X357540000Y-136547500D03*
X357540000Y-137182500D03*
X357540000Y-137817500D03*
X357540000Y-138452500D03*
X357540000Y-139087500D03*
X357540000Y-139722500D03*
X357540000Y-140357500D03*
X357540000Y-140992500D03*
D12*
X65750000Y-145250000D03*
X64250000Y-145250000D03*
X85750000Y-145250000D03*
X84250000Y-145250000D03*
X105750000Y-145250000D03*
X104250000Y-145250000D03*
X135750000Y-145250000D03*
X134250000Y-145250000D03*
X155750000Y-145250000D03*
X154250000Y-145250000D03*
X186000000Y-145250000D03*
X184500000Y-145250000D03*
X205750000Y-145250000D03*
X204250000Y-145250000D03*
X225750000Y-145250000D03*
X224250000Y-145250000D03*
X245750000Y-145250000D03*
X244250000Y-145250000D03*
X285750000Y-145250000D03*
X284250000Y-145250000D03*
X305750000Y-145250000D03*
X304250000Y-145250000D03*
X335750000Y-145250000D03*
X334250000Y-145250000D03*
X355750000Y-145250000D03*
X354250000Y-145250000D03*
X265750000Y-145250000D03*
X264250000Y-145250000D03*
D11*
X262460000Y-140992500D03*
X262460000Y-140357500D03*
X262460000Y-139722500D03*
X262460000Y-139087500D03*
X262460000Y-138452500D03*
X262460000Y-137817500D03*
X262460000Y-137182500D03*
X262460000Y-136547500D03*
X262460000Y-135912500D03*
X262460000Y-135277500D03*
X262460000Y-134642500D03*
X262460000Y-134007500D03*
X267540000Y-134007500D03*
X267540000Y-134642500D03*
X267540000Y-135277500D03*
X267540000Y-135912500D03*
X267540000Y-136547500D03*
X267540000Y-137182500D03*
X267540000Y-137817500D03*
X267540000Y-138452500D03*
X267540000Y-139087500D03*
X267540000Y-139722500D03*
X267540000Y-140357500D03*
X267540000Y-140992500D03*
D12*
X65750000Y-143250000D03*
X64250000Y-143250000D03*
X85750000Y-143250000D03*
X84250000Y-143250000D03*
X105750000Y-143250000D03*
X104250000Y-143250000D03*
X135750000Y-143250000D03*
X134250000Y-143250000D03*
X155750000Y-143250000D03*
X154250000Y-143250000D03*
X186000000Y-143250000D03*
X184500000Y-143250000D03*
X205750000Y-143250000D03*
X204250000Y-143250000D03*
X225750000Y-143250000D03*
X224250000Y-143250000D03*
X245750000Y-143250000D03*
X244250000Y-143250000D03*
X285750000Y-143250000D03*
X284250000Y-143250000D03*
X305750000Y-143250000D03*
X304250000Y-143250000D03*
X335750000Y-143250000D03*
X334250000Y-143250000D03*
X355750000Y-143250000D03*
X354250000Y-143250000D03*
X265750000Y-143250000D03*
X264250000Y-143250000D03*
D13*
X68750000Y-126750000D03*
X68750000Y-125250000D03*
X68750000Y-124250000D03*
X68750000Y-122750000D03*
X66750000Y-126750000D03*
X66750000Y-125250000D03*
X66750000Y-124250000D03*
X66750000Y-122750000D03*
X64750000Y-126750000D03*
X64750000Y-125250000D03*
X64750000Y-124250000D03*
X64750000Y-122750000D03*
X62750000Y-126750000D03*
X62750000Y-125250000D03*
X62750000Y-124250000D03*
X62750000Y-122750000D03*
D14*
X71250000Y-151250000D03*
X68250000Y-151250000D03*
D15*
X75000000Y-145000000D03*
X75000000Y-148000000D03*
X95000000Y-145000000D03*
X95000000Y-148000000D03*
X115000000Y-145000000D03*
X115000000Y-148000000D03*
X145000000Y-145000000D03*
X145000000Y-148000000D03*
X165000000Y-145000000D03*
X165000000Y-148000000D03*
X195000000Y-145000000D03*
X195000000Y-148000000D03*
X215000000Y-145000000D03*
X215000000Y-148000000D03*
X235000000Y-145000000D03*
X235000000Y-148000000D03*
X255000000Y-145000000D03*
X255000000Y-148000000D03*
X295000000Y-145000000D03*
X295000000Y-148000000D03*
X315000000Y-145000000D03*
X315000000Y-148000000D03*
X345000000Y-145000000D03*
X345000000Y-148000000D03*
X365000000Y-145000000D03*
X365000000Y-148000000D03*
X273750000Y-145000000D03*
X273750000Y-148000000D03*
X321500000Y-145000000D03*
X321500000Y-148000000D03*
D16*
X87500000Y-158750000D03*
X89000000Y-158750000D03*
X87500000Y-118750000D03*
X89000000Y-118750000D03*
M02*
