G04 #@! TF.FileFunction,Soldermask,Bot*
%FSLAX46Y46*%
G04 Gerber Fmt 4.6, Leading zero omitted, Abs format (unit mm)*
G04 Created by KiCad (PCBNEW (2014-11-27 BZR 5304)-product) date 2015 February 14, Saturday 16:28:48*
%MOMM*%
G01*
G04 APERTURE LIST*
%ADD10C,0.100000*%
%ADD11R,1.799540X0.750520*%
%ADD12C,1.924000*%
%ADD13R,1.200000X1.150000*%
%ADD14C,2.076400*%
%ADD15C,1.906220*%
%ADD16R,1.300000X0.900000*%
%ADD17R,1.400000X2.000000*%
%ADD18O,2.200860X3.900120*%
%ADD19C,3.600000*%
%ADD20R,2.000000X1.400000*%
%ADD21R,0.900000X1.300000*%
G04 APERTURE END LIST*
D10*
D11*
X62460000Y-140992500D03*
X62460000Y-140357500D03*
X62460000Y-139722500D03*
X62460000Y-139087500D03*
X62460000Y-138452500D03*
X62460000Y-137817500D03*
X62460000Y-137182500D03*
X62460000Y-136547500D03*
X62460000Y-135912500D03*
X62460000Y-135277500D03*
X62460000Y-134642500D03*
X62460000Y-134007500D03*
X67540000Y-134007500D03*
X67540000Y-134642500D03*
X67540000Y-135277500D03*
X67540000Y-135912500D03*
X67540000Y-136547500D03*
X67540000Y-137182500D03*
X67540000Y-137817500D03*
X67540000Y-138452500D03*
X67540000Y-139087500D03*
X67540000Y-139722500D03*
X67540000Y-140357500D03*
X67540000Y-140992500D03*
D12*
X57380000Y-127340000D03*
X57380000Y-129880000D03*
X57380000Y-132420000D03*
X57380000Y-134960000D03*
X57380000Y-137500000D03*
X57380000Y-140040000D03*
X57380000Y-142580000D03*
X57380000Y-145120000D03*
X57380000Y-147660000D03*
X72620000Y-147660000D03*
X72620000Y-145120000D03*
X72620000Y-142580000D03*
X72620000Y-140040000D03*
X72620000Y-137500000D03*
X72620000Y-134960000D03*
X72620000Y-132420000D03*
X72620000Y-129880000D03*
X72620000Y-127340000D03*
D11*
X82460000Y-140992500D03*
X82460000Y-140357500D03*
X82460000Y-139722500D03*
X82460000Y-139087500D03*
X82460000Y-138452500D03*
X82460000Y-137817500D03*
X82460000Y-137182500D03*
X82460000Y-136547500D03*
X82460000Y-135912500D03*
X82460000Y-135277500D03*
X82460000Y-134642500D03*
X82460000Y-134007500D03*
X87540000Y-134007500D03*
X87540000Y-134642500D03*
X87540000Y-135277500D03*
X87540000Y-135912500D03*
X87540000Y-136547500D03*
X87540000Y-137182500D03*
X87540000Y-137817500D03*
X87540000Y-138452500D03*
X87540000Y-139087500D03*
X87540000Y-139722500D03*
X87540000Y-140357500D03*
X87540000Y-140992500D03*
X102465000Y-140992500D03*
X102465000Y-140357500D03*
X102465000Y-139722500D03*
X102465000Y-139087500D03*
X102465000Y-138452500D03*
X102465000Y-137817500D03*
X102465000Y-137182500D03*
X102465000Y-136547500D03*
X102465000Y-135912500D03*
X102465000Y-135277500D03*
X102465000Y-134642500D03*
X102465000Y-134007500D03*
X107545000Y-134007500D03*
X107545000Y-134642500D03*
X107545000Y-135277500D03*
X107545000Y-135912500D03*
X107545000Y-136547500D03*
X107545000Y-137182500D03*
X107545000Y-137817500D03*
X107545000Y-138452500D03*
X107545000Y-139087500D03*
X107545000Y-139722500D03*
X107545000Y-140357500D03*
X107545000Y-140992500D03*
X132460000Y-140992500D03*
X132460000Y-140357500D03*
X132460000Y-139722500D03*
X132460000Y-139087500D03*
X132460000Y-138452500D03*
X132460000Y-137817500D03*
X132460000Y-137182500D03*
X132460000Y-136547500D03*
X132460000Y-135912500D03*
X132460000Y-135277500D03*
X132460000Y-134642500D03*
X132460000Y-134007500D03*
X137540000Y-134007500D03*
X137540000Y-134642500D03*
X137540000Y-135277500D03*
X137540000Y-135912500D03*
X137540000Y-136547500D03*
X137540000Y-137182500D03*
X137540000Y-137817500D03*
X137540000Y-138452500D03*
X137540000Y-139087500D03*
X137540000Y-139722500D03*
X137540000Y-140357500D03*
X137540000Y-140992500D03*
X152460000Y-140992500D03*
X152460000Y-140357500D03*
X152460000Y-139722500D03*
X152460000Y-139087500D03*
X152460000Y-138452500D03*
X152460000Y-137817500D03*
X152460000Y-137182500D03*
X152460000Y-136547500D03*
X152460000Y-135912500D03*
X152460000Y-135277500D03*
X152460000Y-134642500D03*
X152460000Y-134007500D03*
X157540000Y-134007500D03*
X157540000Y-134642500D03*
X157540000Y-135277500D03*
X157540000Y-135912500D03*
X157540000Y-136547500D03*
X157540000Y-137182500D03*
X157540000Y-137817500D03*
X157540000Y-138452500D03*
X157540000Y-139087500D03*
X157540000Y-139722500D03*
X157540000Y-140357500D03*
X157540000Y-140992500D03*
X182460000Y-140992500D03*
X182460000Y-140357500D03*
X182460000Y-139722500D03*
X182460000Y-139087500D03*
X182460000Y-138452500D03*
X182460000Y-137817500D03*
X182460000Y-137182500D03*
X182460000Y-136547500D03*
X182460000Y-135912500D03*
X182460000Y-135277500D03*
X182460000Y-134642500D03*
X182460000Y-134007500D03*
X187540000Y-134007500D03*
X187540000Y-134642500D03*
X187540000Y-135277500D03*
X187540000Y-135912500D03*
X187540000Y-136547500D03*
X187540000Y-137182500D03*
X187540000Y-137817500D03*
X187540000Y-138452500D03*
X187540000Y-139087500D03*
X187540000Y-139722500D03*
X187540000Y-140357500D03*
X187540000Y-140992500D03*
X202460000Y-140992500D03*
X202460000Y-140357500D03*
X202460000Y-139722500D03*
X202460000Y-139087500D03*
X202460000Y-138452500D03*
X202460000Y-137817500D03*
X202460000Y-137182500D03*
X202460000Y-136547500D03*
X202460000Y-135912500D03*
X202460000Y-135277500D03*
X202460000Y-134642500D03*
X202460000Y-134007500D03*
X207540000Y-134007500D03*
X207540000Y-134642500D03*
X207540000Y-135277500D03*
X207540000Y-135912500D03*
X207540000Y-136547500D03*
X207540000Y-137182500D03*
X207540000Y-137817500D03*
X207540000Y-138452500D03*
X207540000Y-139087500D03*
X207540000Y-139722500D03*
X207540000Y-140357500D03*
X207540000Y-140992500D03*
X222460000Y-140992500D03*
X222460000Y-140357500D03*
X222460000Y-139722500D03*
X222460000Y-139087500D03*
X222460000Y-138452500D03*
X222460000Y-137817500D03*
X222460000Y-137182500D03*
X222460000Y-136547500D03*
X222460000Y-135912500D03*
X222460000Y-135277500D03*
X222460000Y-134642500D03*
X222460000Y-134007500D03*
X227540000Y-134007500D03*
X227540000Y-134642500D03*
X227540000Y-135277500D03*
X227540000Y-135912500D03*
X227540000Y-136547500D03*
X227540000Y-137182500D03*
X227540000Y-137817500D03*
X227540000Y-138452500D03*
X227540000Y-139087500D03*
X227540000Y-139722500D03*
X227540000Y-140357500D03*
X227540000Y-140992500D03*
X242460000Y-140992500D03*
X242460000Y-140357500D03*
X242460000Y-139722500D03*
X242460000Y-139087500D03*
X242460000Y-138452500D03*
X242460000Y-137817500D03*
X242460000Y-137182500D03*
X242460000Y-136547500D03*
X242460000Y-135912500D03*
X242460000Y-135277500D03*
X242460000Y-134642500D03*
X242460000Y-134007500D03*
X247540000Y-134007500D03*
X247540000Y-134642500D03*
X247540000Y-135277500D03*
X247540000Y-135912500D03*
X247540000Y-136547500D03*
X247540000Y-137182500D03*
X247540000Y-137817500D03*
X247540000Y-138452500D03*
X247540000Y-139087500D03*
X247540000Y-139722500D03*
X247540000Y-140357500D03*
X247540000Y-140992500D03*
X282460000Y-140992500D03*
X282460000Y-140357500D03*
X282460000Y-139722500D03*
X282460000Y-139087500D03*
X282460000Y-138452500D03*
X282460000Y-137817500D03*
X282460000Y-137182500D03*
X282460000Y-136547500D03*
X282460000Y-135912500D03*
X282460000Y-135277500D03*
X282460000Y-134642500D03*
X282460000Y-134007500D03*
X287540000Y-134007500D03*
X287540000Y-134642500D03*
X287540000Y-135277500D03*
X287540000Y-135912500D03*
X287540000Y-136547500D03*
X287540000Y-137182500D03*
X287540000Y-137817500D03*
X287540000Y-138452500D03*
X287540000Y-139087500D03*
X287540000Y-139722500D03*
X287540000Y-140357500D03*
X287540000Y-140992500D03*
X302460000Y-140992500D03*
X302460000Y-140357500D03*
X302460000Y-139722500D03*
X302460000Y-139087500D03*
X302460000Y-138452500D03*
X302460000Y-137817500D03*
X302460000Y-137182500D03*
X302460000Y-136547500D03*
X302460000Y-135912500D03*
X302460000Y-135277500D03*
X302460000Y-134642500D03*
X302460000Y-134007500D03*
X307540000Y-134007500D03*
X307540000Y-134642500D03*
X307540000Y-135277500D03*
X307540000Y-135912500D03*
X307540000Y-136547500D03*
X307540000Y-137182500D03*
X307540000Y-137817500D03*
X307540000Y-138452500D03*
X307540000Y-139087500D03*
X307540000Y-139722500D03*
X307540000Y-140357500D03*
X307540000Y-140992500D03*
X332460000Y-140992500D03*
X332460000Y-140357500D03*
X332460000Y-139722500D03*
X332460000Y-139087500D03*
X332460000Y-138452500D03*
X332460000Y-137817500D03*
X332460000Y-137182500D03*
X332460000Y-136547500D03*
X332460000Y-135912500D03*
X332460000Y-135277500D03*
X332460000Y-134642500D03*
X332460000Y-134007500D03*
X337540000Y-134007500D03*
X337540000Y-134642500D03*
X337540000Y-135277500D03*
X337540000Y-135912500D03*
X337540000Y-136547500D03*
X337540000Y-137182500D03*
X337540000Y-137817500D03*
X337540000Y-138452500D03*
X337540000Y-139087500D03*
X337540000Y-139722500D03*
X337540000Y-140357500D03*
X337540000Y-140992500D03*
X352460000Y-140992500D03*
X352460000Y-140357500D03*
X352460000Y-139722500D03*
X352460000Y-139087500D03*
X352460000Y-138452500D03*
X352460000Y-137817500D03*
X352460000Y-137182500D03*
X352460000Y-136547500D03*
X352460000Y-135912500D03*
X352460000Y-135277500D03*
X352460000Y-134642500D03*
X352460000Y-134007500D03*
X357540000Y-134007500D03*
X357540000Y-134642500D03*
X357540000Y-135277500D03*
X357540000Y-135912500D03*
X357540000Y-136547500D03*
X357540000Y-137182500D03*
X357540000Y-137817500D03*
X357540000Y-138452500D03*
X357540000Y-139087500D03*
X357540000Y-139722500D03*
X357540000Y-140357500D03*
X357540000Y-140992500D03*
D12*
X77380000Y-127340000D03*
X77380000Y-129880000D03*
X77380000Y-132420000D03*
X77380000Y-134960000D03*
X77380000Y-137500000D03*
X77380000Y-140040000D03*
X77380000Y-142580000D03*
X77380000Y-145120000D03*
X77380000Y-147660000D03*
X92620000Y-147660000D03*
X92620000Y-145120000D03*
X92620000Y-142580000D03*
X92620000Y-140040000D03*
X92620000Y-137500000D03*
X92620000Y-134960000D03*
X92620000Y-132420000D03*
X92620000Y-129880000D03*
X92620000Y-127340000D03*
X97380000Y-127340000D03*
X97380000Y-129880000D03*
X97380000Y-132420000D03*
X97380000Y-134960000D03*
X97380000Y-137500000D03*
X97380000Y-140040000D03*
X97380000Y-142580000D03*
X97380000Y-145120000D03*
X97380000Y-147660000D03*
X112620000Y-147660000D03*
X112620000Y-145120000D03*
X112620000Y-142580000D03*
X112620000Y-140040000D03*
X112620000Y-137500000D03*
X112620000Y-134960000D03*
X112620000Y-132420000D03*
X112620000Y-129880000D03*
X112620000Y-127340000D03*
X127380000Y-127340000D03*
X127380000Y-129880000D03*
X127380000Y-132420000D03*
X127380000Y-134960000D03*
X127380000Y-137500000D03*
X127380000Y-140040000D03*
X127380000Y-142580000D03*
X127380000Y-145120000D03*
X127380000Y-147660000D03*
X142620000Y-147660000D03*
X142620000Y-145120000D03*
X142620000Y-142580000D03*
X142620000Y-140040000D03*
X142620000Y-137500000D03*
X142620000Y-134960000D03*
X142620000Y-132420000D03*
X142620000Y-129880000D03*
X142620000Y-127340000D03*
X147380000Y-127340000D03*
X147380000Y-129880000D03*
X147380000Y-132420000D03*
X147380000Y-134960000D03*
X147380000Y-137500000D03*
X147380000Y-140040000D03*
X147380000Y-142580000D03*
X147380000Y-145120000D03*
X147380000Y-147660000D03*
X162620000Y-147660000D03*
X162620000Y-145120000D03*
X162620000Y-142580000D03*
X162620000Y-140040000D03*
X162620000Y-137500000D03*
X162620000Y-134960000D03*
X162620000Y-132420000D03*
X162620000Y-129880000D03*
X162620000Y-127340000D03*
X177380000Y-127340000D03*
X177380000Y-129880000D03*
X177380000Y-132420000D03*
X177380000Y-134960000D03*
X177380000Y-137500000D03*
X177380000Y-140040000D03*
X177380000Y-142580000D03*
X177380000Y-145120000D03*
X177380000Y-147660000D03*
X192620000Y-147660000D03*
X192620000Y-145120000D03*
X192620000Y-142580000D03*
X192620000Y-140040000D03*
X192620000Y-137500000D03*
X192620000Y-134960000D03*
X192620000Y-132420000D03*
X192620000Y-129880000D03*
X192620000Y-127340000D03*
X197380000Y-127340000D03*
X197380000Y-129880000D03*
X197380000Y-132420000D03*
X197380000Y-134960000D03*
X197380000Y-137500000D03*
X197380000Y-140040000D03*
X197380000Y-142580000D03*
X197380000Y-145120000D03*
X197380000Y-147660000D03*
X212620000Y-147660000D03*
X212620000Y-145120000D03*
X212620000Y-142580000D03*
X212620000Y-140040000D03*
X212620000Y-137500000D03*
X212620000Y-134960000D03*
X212620000Y-132420000D03*
X212620000Y-129880000D03*
X212620000Y-127340000D03*
X217380000Y-127340000D03*
X217380000Y-129880000D03*
X217380000Y-132420000D03*
X217380000Y-134960000D03*
X217380000Y-137500000D03*
X217380000Y-140040000D03*
X217380000Y-142580000D03*
X217380000Y-145120000D03*
X217380000Y-147660000D03*
X232620000Y-147660000D03*
X232620000Y-145120000D03*
X232620000Y-142580000D03*
X232620000Y-140040000D03*
X232620000Y-137500000D03*
X232620000Y-134960000D03*
X232620000Y-132420000D03*
X232620000Y-129880000D03*
X232620000Y-127340000D03*
X237380000Y-127340000D03*
X237380000Y-129880000D03*
X237380000Y-132420000D03*
X237380000Y-134960000D03*
X237380000Y-137500000D03*
X237380000Y-140040000D03*
X237380000Y-142580000D03*
X237380000Y-145120000D03*
X237380000Y-147660000D03*
X252620000Y-147660000D03*
X252620000Y-145120000D03*
X252620000Y-142580000D03*
X252620000Y-140040000D03*
X252620000Y-137500000D03*
X252620000Y-134960000D03*
X252620000Y-132420000D03*
X252620000Y-129880000D03*
X252620000Y-127340000D03*
X277380000Y-127340000D03*
X277380000Y-129880000D03*
X277380000Y-132420000D03*
X277380000Y-134960000D03*
X277380000Y-137500000D03*
X277380000Y-140040000D03*
X277380000Y-142580000D03*
X277380000Y-145120000D03*
X277380000Y-147660000D03*
X292620000Y-147660000D03*
X292620000Y-145120000D03*
X292620000Y-142580000D03*
X292620000Y-140040000D03*
X292620000Y-137500000D03*
X292620000Y-134960000D03*
X292620000Y-132420000D03*
X292620000Y-129880000D03*
X292620000Y-127340000D03*
X297380000Y-127340000D03*
X297380000Y-129880000D03*
X297380000Y-132420000D03*
X297380000Y-134960000D03*
X297380000Y-137500000D03*
X297380000Y-140040000D03*
X297380000Y-142580000D03*
X297380000Y-145120000D03*
X297380000Y-147660000D03*
X312620000Y-147660000D03*
X312620000Y-145120000D03*
X312620000Y-142580000D03*
X312620000Y-140040000D03*
X312620000Y-137500000D03*
X312620000Y-134960000D03*
X312620000Y-132420000D03*
X312620000Y-129880000D03*
X312620000Y-127340000D03*
X327380000Y-127340000D03*
X327380000Y-129880000D03*
X327380000Y-132420000D03*
X327380000Y-134960000D03*
X327380000Y-137500000D03*
X327380000Y-140040000D03*
X327380000Y-142580000D03*
X327380000Y-145120000D03*
X327380000Y-147660000D03*
X342620000Y-147660000D03*
X342620000Y-145120000D03*
X342620000Y-142580000D03*
X342620000Y-140040000D03*
X342620000Y-137500000D03*
X342620000Y-134960000D03*
X342620000Y-132420000D03*
X342620000Y-129880000D03*
X342620000Y-127340000D03*
X347380000Y-127340000D03*
X347380000Y-129880000D03*
X347380000Y-132420000D03*
X347380000Y-134960000D03*
X347380000Y-137500000D03*
X347380000Y-140040000D03*
X347380000Y-142580000D03*
X347380000Y-145120000D03*
X347380000Y-147660000D03*
X362620000Y-147660000D03*
X362620000Y-145120000D03*
X362620000Y-142580000D03*
X362620000Y-140040000D03*
X362620000Y-137500000D03*
X362620000Y-134960000D03*
X362620000Y-132420000D03*
X362620000Y-129880000D03*
X362620000Y-127340000D03*
D13*
X65750000Y-145250000D03*
X64250000Y-145250000D03*
X85750000Y-145250000D03*
X84250000Y-145250000D03*
X105750000Y-145250000D03*
X104250000Y-145250000D03*
X135750000Y-145250000D03*
X134250000Y-145250000D03*
X155750000Y-145250000D03*
X154250000Y-145250000D03*
X186000000Y-145250000D03*
X184500000Y-145250000D03*
X205750000Y-145250000D03*
X204250000Y-145250000D03*
X225750000Y-145250000D03*
X224250000Y-145250000D03*
X245750000Y-145250000D03*
X244250000Y-145250000D03*
X285750000Y-145250000D03*
X284250000Y-145250000D03*
X305750000Y-145250000D03*
X304250000Y-145250000D03*
X335750000Y-145250000D03*
X334250000Y-145250000D03*
X355750000Y-145250000D03*
X354250000Y-145250000D03*
X265750000Y-145250000D03*
X264250000Y-145250000D03*
D14*
X271270000Y-145000000D03*
X268730000Y-145000000D03*
X271270000Y-130000000D03*
X268730000Y-130000000D03*
X321270000Y-132500000D03*
X318730000Y-132500000D03*
X321270000Y-140000000D03*
X318730000Y-140000000D03*
D11*
X262460000Y-140992500D03*
X262460000Y-140357500D03*
X262460000Y-139722500D03*
X262460000Y-139087500D03*
X262460000Y-138452500D03*
X262460000Y-137817500D03*
X262460000Y-137182500D03*
X262460000Y-136547500D03*
X262460000Y-135912500D03*
X262460000Y-135277500D03*
X262460000Y-134642500D03*
X262460000Y-134007500D03*
X267540000Y-134007500D03*
X267540000Y-134642500D03*
X267540000Y-135277500D03*
X267540000Y-135912500D03*
X267540000Y-136547500D03*
X267540000Y-137182500D03*
X267540000Y-137817500D03*
X267540000Y-138452500D03*
X267540000Y-139087500D03*
X267540000Y-139722500D03*
X267540000Y-140357500D03*
X267540000Y-140992500D03*
D15*
X63610000Y-156230000D03*
X63610000Y-158770000D03*
X66150000Y-156230000D03*
X66150000Y-158770000D03*
X68690000Y-156230000D03*
X68690000Y-158770000D03*
X71230000Y-156230000D03*
X71230000Y-158770000D03*
X73770000Y-156230000D03*
X73770000Y-158770000D03*
X76310000Y-156230000D03*
X76310000Y-158770000D03*
X78850000Y-156230000D03*
X78850000Y-158770000D03*
X81390000Y-156230000D03*
X81390000Y-158770000D03*
X63610000Y-116230000D03*
X63610000Y-118770000D03*
X66150000Y-116230000D03*
X66150000Y-118770000D03*
X68690000Y-116230000D03*
X68690000Y-118770000D03*
X71230000Y-116230000D03*
X71230000Y-118770000D03*
X73770000Y-116230000D03*
X73770000Y-118770000D03*
X76310000Y-116230000D03*
X76310000Y-118770000D03*
X78850000Y-116230000D03*
X78850000Y-118770000D03*
X81390000Y-116230000D03*
X81390000Y-118770000D03*
D13*
X65750000Y-143250000D03*
X64250000Y-143250000D03*
X85750000Y-143250000D03*
X84250000Y-143250000D03*
X105750000Y-143250000D03*
X104250000Y-143250000D03*
X135750000Y-143250000D03*
X134250000Y-143250000D03*
X155750000Y-143250000D03*
X154250000Y-143250000D03*
X186000000Y-143250000D03*
X184500000Y-143250000D03*
X205750000Y-143250000D03*
X204250000Y-143250000D03*
X225750000Y-143250000D03*
X224250000Y-143250000D03*
X245750000Y-143250000D03*
X244250000Y-143250000D03*
X285750000Y-143250000D03*
X284250000Y-143250000D03*
X305750000Y-143250000D03*
X304250000Y-143250000D03*
X335750000Y-143250000D03*
X334250000Y-143250000D03*
X355750000Y-143250000D03*
X354250000Y-143250000D03*
X265750000Y-143250000D03*
X264250000Y-143250000D03*
D16*
X68750000Y-126750000D03*
X68750000Y-125250000D03*
X68750000Y-124250000D03*
X68750000Y-122750000D03*
X66750000Y-126750000D03*
X66750000Y-125250000D03*
X66750000Y-124250000D03*
X66750000Y-122750000D03*
X64750000Y-126750000D03*
X64750000Y-125250000D03*
X64750000Y-124250000D03*
X64750000Y-122750000D03*
X62750000Y-126750000D03*
X62750000Y-125250000D03*
X62750000Y-124250000D03*
X62750000Y-122750000D03*
D17*
X71250000Y-151250000D03*
X68250000Y-151250000D03*
D18*
X91230000Y-157500000D03*
X93770000Y-157500000D03*
D19*
X106000000Y-116500000D03*
X158000000Y-116500000D03*
X210000000Y-116500000D03*
X262000000Y-116500000D03*
X314000000Y-116500000D03*
X366000000Y-116500000D03*
X366000000Y-158500000D03*
X314000000Y-158500000D03*
X262000000Y-158500000D03*
X210000000Y-158500000D03*
X158000000Y-158500000D03*
X106000000Y-158500000D03*
X54000000Y-158500000D03*
X54000000Y-116500000D03*
D20*
X75000000Y-145000000D03*
X75000000Y-148000000D03*
X95000000Y-145000000D03*
X95000000Y-148000000D03*
X115000000Y-145000000D03*
X115000000Y-148000000D03*
X145000000Y-145000000D03*
X145000000Y-148000000D03*
X165000000Y-145000000D03*
X165000000Y-148000000D03*
X195000000Y-145000000D03*
X195000000Y-148000000D03*
X215000000Y-145000000D03*
X215000000Y-148000000D03*
X235000000Y-145000000D03*
X235000000Y-148000000D03*
X255000000Y-145000000D03*
X255000000Y-148000000D03*
X295000000Y-145000000D03*
X295000000Y-148000000D03*
X315000000Y-145000000D03*
X315000000Y-148000000D03*
X345000000Y-145000000D03*
X345000000Y-148000000D03*
X365000000Y-145000000D03*
X365000000Y-148000000D03*
X273750000Y-145000000D03*
X273750000Y-148000000D03*
X321500000Y-145000000D03*
X321500000Y-148000000D03*
D21*
X87500000Y-158750000D03*
X89000000Y-158750000D03*
X87500000Y-118750000D03*
X89000000Y-118750000D03*
M02*
