M48
;DRILL file {kicad (2014-11-27 BZR 5304)-product} date 2015 January 25, Sunday 18:29:46
;FORMAT={-:-/ absolute / inch / decimal}
FMAT,2
INCH,TZ
T1C0.025
T2C0.031
T3C0.032
T4C0.039
T5C0.047
T6C0.126
%
G90
G05
M72
T1
X2.4016Y-5.4921
X2.4705Y-4.7933
X2.5295Y-5.7776
X2.5492Y-4.7933
X2.5591Y-5.502
X2.5787Y-5.4232
X2.628Y-4.7933
X2.628Y-5.689
X2.7067Y-4.7933
X2.7264Y-5.4823
X2.7264Y-5.5315
X2.7559Y-5.6201
X2.7559Y-5.6988
X2.9232Y-5.3248
X2.9232Y-5.4035
X2.9528Y-5.7677
X3.3169Y-5.561
X3.3169Y-5.7776
X3.3465Y-5.502
X3.3661Y-5.4232
X3.5138Y-5.4823
X3.5138Y-5.5315
X3.7402Y-5.7677
X4.1043Y-5.561
X4.1043Y-5.7776
X4.1339Y-5.502
X4.1535Y-5.4232
X4.2913Y-5.4823
X4.2913Y-5.5315
X4.5276Y-5.7677
X5.2854Y-5.561
X5.2854Y-5.7776
X5.315Y-5.502
X5.3346Y-5.4232
X5.4724Y-5.4823
X5.4724Y-5.5315
X5.7087Y-5.7677
X6.0728Y-5.561
X6.0728Y-5.7776
X6.1024Y-5.502
X6.122Y-5.4232
X6.2598Y-5.4823
X6.2598Y-5.5315
X6.4961Y-5.7677
X7.2539Y-5.561
X7.2638Y-5.7776
X7.2835Y-5.502
X7.3031Y-5.4232
X7.4409Y-5.4823
X7.4409Y-5.5315
X7.6772Y-5.7677
X8.0413Y-5.561
X8.0413Y-5.7776
X8.0709Y-5.502
X8.0906Y-5.4232
X8.2283Y-5.4823
X8.2283Y-5.5315
X8.4646Y-5.7677
X8.8287Y-5.561
X8.8287Y-5.7776
X8.8583Y-5.502
X8.878Y-5.4232
X9.0157Y-5.4823
X9.0157Y-5.5315
X9.252Y-5.7677
X9.6161Y-5.561
X9.6161Y-5.7776
X9.6457Y-5.502
X9.6654Y-5.4232
X9.8031Y-5.4823
X9.8031Y-5.5315
X10.0394Y-5.7677
X10.2559Y-5.7087
X10.4035Y-5.2657
X10.4035Y-5.561
X10.4035Y-5.7776
X10.4331Y-5.502
X10.4429Y-5.1673
X10.4528Y-5.4232
X10.6004Y-5.4823
X10.6004Y-5.5315
X10.7776Y-5.7677
X11.1909Y-5.561
X11.1909Y-5.7776
X11.2205Y-5.502
X11.2402Y-5.4232
X11.378Y-5.4823
X11.378Y-5.5315
X11.6142Y-5.7677
X11.9783Y-5.561
X11.9783Y-5.7776
X12.0079Y-5.502
X12.0276Y-5.4232
X12.1654Y-5.4823
X12.1654Y-5.5315
X12.4016Y-5.7677
X12.4902Y-5.2657
X12.6575Y-5.7677
X13.1594Y-5.561
X13.1594Y-5.7776
X13.189Y-5.502
X13.2087Y-5.4232
X13.3465Y-5.4823
X13.3465Y-5.5315
X13.5827Y-5.7677
X13.9469Y-5.561
X13.9469Y-5.7776
X13.9764Y-5.502
X13.9961Y-5.4232
X14.1339Y-5.4823
X14.1339Y-5.5315
X14.3701Y-5.7677
T2
X2.2591Y-5.0134
X2.2591Y-5.1134
X2.2591Y-5.2134
X2.2591Y-5.3134
X2.2591Y-5.4134
X2.2591Y-5.5134
X2.2591Y-5.6134
X2.2591Y-5.7134
X2.2591Y-5.8134
X2.8591Y-5.0134
X2.8591Y-5.1134
X2.8591Y-5.2134
X2.8591Y-5.3134
X2.8591Y-5.4134
X2.8591Y-5.5134
X2.8591Y-5.6134
X2.8591Y-5.7134
X2.8591Y-5.8134
X3.0465Y-5.0134
X3.0465Y-5.1134
X3.0465Y-5.2134
X3.0465Y-5.3134
X3.0465Y-5.4134
X3.0465Y-5.5134
X3.0465Y-5.6134
X3.0465Y-5.7134
X3.0465Y-5.8134
X3.6465Y-5.0134
X3.6465Y-5.1134
X3.6465Y-5.2134
X3.6465Y-5.3134
X3.6465Y-5.4134
X3.6465Y-5.5134
X3.6465Y-5.6134
X3.6465Y-5.7134
X3.6465Y-5.8134
X3.8339Y-5.0134
X3.8339Y-5.1134
X3.8339Y-5.2134
X3.8339Y-5.3134
X3.8339Y-5.4134
X3.8339Y-5.5134
X3.8339Y-5.6134
X3.8339Y-5.7134
X3.8339Y-5.8134
X4.4339Y-5.0134
X4.4339Y-5.1134
X4.4339Y-5.2134
X4.4339Y-5.3134
X4.4339Y-5.4134
X4.4339Y-5.5134
X4.4339Y-5.6134
X4.4339Y-5.7134
X4.4339Y-5.8134
X5.015Y-5.0134
X5.015Y-5.1134
X5.015Y-5.2134
X5.015Y-5.3134
X5.015Y-5.4134
X5.015Y-5.5134
X5.015Y-5.6134
X5.015Y-5.7134
X5.015Y-5.8134
X5.615Y-5.0134
X5.615Y-5.1134
X5.615Y-5.2134
X5.615Y-5.3134
X5.615Y-5.4134
X5.615Y-5.5134
X5.615Y-5.6134
X5.615Y-5.7134
X5.615Y-5.8134
X5.8024Y-5.0134
X5.8024Y-5.1134
X5.8024Y-5.2134
X5.8024Y-5.3134
X5.8024Y-5.4134
X5.8024Y-5.5134
X5.8024Y-5.6134
X5.8024Y-5.7134
X5.8024Y-5.8134
X6.4024Y-5.0134
X6.4024Y-5.1134
X6.4024Y-5.2134
X6.4024Y-5.3134
X6.4024Y-5.4134
X6.4024Y-5.5134
X6.4024Y-5.6134
X6.4024Y-5.7134
X6.4024Y-5.8134
X6.9835Y-5.0134
X6.9835Y-5.1134
X6.9835Y-5.2134
X6.9835Y-5.3134
X6.9835Y-5.4134
X6.9835Y-5.5134
X6.9835Y-5.6134
X6.9835Y-5.7134
X6.9835Y-5.8134
X7.5835Y-5.0134
X7.5835Y-5.1134
X7.5835Y-5.2134
X7.5835Y-5.3134
X7.5835Y-5.4134
X7.5835Y-5.5134
X7.5835Y-5.6134
X7.5835Y-5.7134
X7.5835Y-5.8134
X7.7709Y-5.0134
X7.7709Y-5.1134
X7.7709Y-5.2134
X7.7709Y-5.3134
X7.7709Y-5.4134
X7.7709Y-5.5134
X7.7709Y-5.6134
X7.7709Y-5.7134
X7.7709Y-5.8134
X8.3709Y-5.0134
X8.3709Y-5.1134
X8.3709Y-5.2134
X8.3709Y-5.3134
X8.3709Y-5.4134
X8.3709Y-5.5134
X8.3709Y-5.6134
X8.3709Y-5.7134
X8.3709Y-5.8134
X8.5583Y-5.0134
X8.5583Y-5.1134
X8.5583Y-5.2134
X8.5583Y-5.3134
X8.5583Y-5.4134
X8.5583Y-5.5134
X8.5583Y-5.6134
X8.5583Y-5.7134
X8.5583Y-5.8134
X9.1583Y-5.0134
X9.1583Y-5.1134
X9.1583Y-5.2134
X9.1583Y-5.3134
X9.1583Y-5.4134
X9.1583Y-5.5134
X9.1583Y-5.6134
X9.1583Y-5.7134
X9.1583Y-5.8134
X9.3457Y-5.0134
X9.3457Y-5.1134
X9.3457Y-5.2134
X9.3457Y-5.3134
X9.3457Y-5.4134
X9.3457Y-5.5134
X9.3457Y-5.6134
X9.3457Y-5.7134
X9.3457Y-5.8134
X9.9457Y-5.0134
X9.9457Y-5.1134
X9.9457Y-5.2134
X9.9457Y-5.3134
X9.9457Y-5.4134
X9.9457Y-5.5134
X9.9457Y-5.6134
X9.9457Y-5.7134
X9.9457Y-5.8134
X10.9205Y-5.0134
X10.9205Y-5.1134
X10.9205Y-5.2134
X10.9205Y-5.3134
X10.9205Y-5.4134
X10.9205Y-5.5134
X10.9205Y-5.6134
X10.9205Y-5.7134
X10.9205Y-5.8134
X11.5205Y-5.0134
X11.5205Y-5.1134
X11.5205Y-5.2134
X11.5205Y-5.3134
X11.5205Y-5.4134
X11.5205Y-5.5134
X11.5205Y-5.6134
X11.5205Y-5.7134
X11.5205Y-5.8134
X11.7079Y-5.0134
X11.7079Y-5.1134
X11.7079Y-5.2134
X11.7079Y-5.3134
X11.7079Y-5.4134
X11.7079Y-5.5134
X11.7079Y-5.6134
X11.7079Y-5.7134
X11.7079Y-5.8134
X12.3079Y-5.0134
X12.3079Y-5.1134
X12.3079Y-5.2134
X12.3079Y-5.3134
X12.3079Y-5.4134
X12.3079Y-5.5134
X12.3079Y-5.6134
X12.3079Y-5.7134
X12.3079Y-5.8134
X12.889Y-5.0134
X12.889Y-5.1134
X12.889Y-5.2134
X12.889Y-5.3134
X12.889Y-5.4134
X12.889Y-5.5134
X12.889Y-5.6134
X12.889Y-5.7134
X12.889Y-5.8134
X13.489Y-5.0134
X13.489Y-5.1134
X13.489Y-5.2134
X13.489Y-5.3134
X13.489Y-5.4134
X13.489Y-5.5134
X13.489Y-5.6134
X13.489Y-5.7134
X13.489Y-5.8134
X13.6764Y-5.0134
X13.6764Y-5.1134
X13.6764Y-5.2134
X13.6764Y-5.3134
X13.6764Y-5.4134
X13.6764Y-5.5134
X13.6764Y-5.6134
X13.6764Y-5.7134
X13.6764Y-5.8134
X14.2764Y-5.0134
X14.2764Y-5.1134
X14.2764Y-5.2134
X14.2764Y-5.3134
X14.2764Y-5.4134
X14.2764Y-5.5134
X14.2764Y-5.6134
X14.2764Y-5.7134
X14.2764Y-5.8134
T3
X10.5799Y-5.1181
X10.5799Y-5.7087
X10.6799Y-5.1181
X10.6799Y-5.7087
X12.5484Y-5.2165
X12.5484Y-5.5118
X12.6484Y-5.2165
X12.6484Y-5.5118
T4
X2.5043Y-4.576
X2.5043Y-4.676
X2.5043Y-6.1508
X2.5043Y-6.2508
X2.6043Y-4.576
X2.6043Y-4.676
X2.6043Y-6.1508
X2.6043Y-6.2508
X2.7043Y-4.576
X2.7043Y-4.676
X2.7043Y-6.1508
X2.7043Y-6.2508
X2.8043Y-4.576
X2.8043Y-4.676
X2.8043Y-6.1508
X2.8043Y-6.2508
X2.9043Y-4.576
X2.9043Y-4.676
X2.9043Y-6.1508
X2.9043Y-6.2508
X3.0043Y-4.576
X3.0043Y-4.676
X3.0043Y-6.1508
X3.0043Y-6.2508
X3.1043Y-4.576
X3.1043Y-4.676
X3.1043Y-6.1508
X3.1043Y-6.2508
X3.2043Y-4.576
X3.2043Y-4.676
X3.2043Y-6.1508
X3.2043Y-6.2508
T5
X3.5917Y-6.2008
X3.6917Y-6.2008
T6
X2.126Y-4.5866
X2.126Y-6.2402
X4.1732Y-4.5866
X4.1732Y-6.2402
X6.2205Y-4.5866
X6.2205Y-6.2402
X8.2677Y-4.5866
X8.2677Y-6.2402
X10.315Y-4.5866
X10.315Y-6.2402
X12.3622Y-4.5866
X12.3622Y-6.2402
X14.4094Y-4.5866
X14.4094Y-6.2402
T0
M30
